<svg xmlns="http://www.w3.org/2000/svg" xmlns:xlink="http://www.w3.org/1999/xlink" width="250" zoomAndPan="magnify" viewBox="0 0 187.5 74.999997" height="100" preserveAspectRatio="xMidYMid meet" version="1.0"><path fill="#c4a74a" d="M 24.207031 15.828125 L 12.757812 15.828125 L 12.757812 18.042969 L 24.128906 18.042969 C 26.433594 18.042969 28.171875 18.5 29.375 19.371094 C 30.578125 20.242188 31.179688 21.445312 31.179688 23.097656 C 31.179688 24.792969 30.574219 26.03125 29.375 26.902344 C 28.175781 27.773438 26.4375 28.191406 24.128906 28.191406 L 12.757812 28.191406 L 12.757812 30.410156 L 24.972656 30.410156 C 27.507812 30.410156 29.449219 30.867188 30.726562 31.703125 C 31.996094 32.578125 32.636719 33.84375 32.636719 35.65625 C 32.636719 37.503906 31.996094 38.773438 30.722656 39.644531 C 29.449219 40.515625 27.546875 40.941406 24.972656 40.941406 L 12.757812 40.941406 L 12.757812 43.15625 L 24.972656 43.15625 C 28.261719 43.15625 30.773438 42.539062 32.523438 41.269531 L 32.523438 41.265625 C 34.234375 39.996094 35.121094 38.171875 35.121094 35.808594 C 35.121094 33.953125 34.5625 32.390625 33.527344 31.15625 L 33.527344 31.152344 C 32.632812 30.125 31.371094 29.445312 29.808594 29.015625 C 30.855469 28.554688 31.75 27.871094 32.425781 26.96875 C 33.265625 25.890625 33.703125 24.558594 33.703125 22.945312 C 33.703125 20.695312 32.816406 18.910156 31.144531 17.675781 C 29.476562 16.445312 27.15625 15.828125 24.207031 15.828125 Z M 49.542969 15.828125 L 49.542969 18.121094 L 67.429688 18.121094 L 67.429688 15.828125 Z M 83.1875 15.828125 L 83.1875 43.15625 L 85.671875 43.15625 L 85.671875 35.953125 L 91.410156 30.074219 L 102.832031 43.15625 L 105.328125 43.15625 L 105.53125 42.714844 L 93.082031 28.277344 L 104.714844 16.28125 L 104.523438 15.828125 L 102.035156 15.828125 L 85.671875 32.664062 L 85.671875 15.828125 Z M 125.078125 15.828125 L 112.5 43.15625 L 115.195312 43.15625 L 126.207031 18.878906 L 137.261719 43.15625 L 139.957031 43.15625 L 127.375 15.828125 Z M 160.296875 15.828125 L 147.714844 43.15625 L 150.410156 43.15625 L 161.425781 18.878906 L 172.476562 43.15625 L 175.171875 43.15625 L 162.59375 15.828125 Z M 49.542969 28.15625 L 49.542969 30.410156 L 67.429688 30.410156 L 67.429688 28.15625 Z M 49.542969 40.863281 L 49.542969 43.15625 L 67.429688 43.15625 L 67.429688 40.863281 Z M 83.496094 49.027344 L 83.496094 53.265625 C 83.234375 52.925781 82.9375 52.617188 82.566406 52.398438 C 82.042969 52.085938 81.445312 51.929688 80.796875 51.929688 C 80.113281 51.929688 79.492188 52.097656 78.941406 52.40625 C 78.371094 52.71875 77.933594 53.175781 77.625 53.738281 C 77.3125 54.300781 77.160156 54.949219 77.160156 55.660156 C 77.160156 56.382812 77.3125 57.019531 77.625 57.582031 C 77.933594 58.148438 78.371094 58.601562 78.941406 58.914062 C 79.492188 59.238281 80.113281 59.390625 80.796875 59.390625 C 81.457031 59.390625 82.054688 59.234375 82.589844 58.925781 L 82.59375 58.925781 C 82.960938 58.707031 83.253906 58.398438 83.511719 58.050781 L 83.511719 59.335938 L 84.503906 59.335938 L 84.503906 49.027344 Z M 113.460938 49.027344 L 113.460938 53.265625 C 113.199219 52.921875 112.902344 52.617188 112.53125 52.398438 C 112.007812 52.085938 111.410156 51.929688 110.761719 51.929688 C 110.078125 51.929688 109.457031 52.097656 108.902344 52.40625 C 108.339844 52.71875 107.898438 53.175781 107.589844 53.738281 C 107.277344 54.300781 107.125 54.949219 107.125 55.660156 C 107.125 56.382812 107.277344 57.019531 107.589844 57.582031 C 107.898438 58.148438 108.335938 58.601562 108.902344 58.914062 C 109.457031 59.238281 110.078125 59.390625 110.761719 59.390625 C 111.421875 59.390625 112.019531 59.234375 112.554688 58.925781 L 112.558594 58.925781 C 112.925781 58.707031 113.21875 58.398438 113.476562 58.050781 L 113.476562 59.335938 L 114.46875 59.335938 L 114.46875 49.027344 Z M 132.578125 49.183594 C 132.378906 49.183594 132.199219 49.265625 132.066406 49.394531 C 131.929688 49.53125 131.855469 49.71875 131.855469 49.90625 C 131.855469 50.105469 131.9375 50.28125 132.066406 50.414062 C 132.203125 50.550781 132.386719 50.613281 132.578125 50.613281 C 132.765625 50.613281 132.949219 50.539062 133.085938 50.402344 C 133.214844 50.269531 133.296875 50.089844 133.296875 49.890625 C 133.296875 49.703125 133.214844 49.527344 133.085938 49.394531 C 132.949219 49.257812 132.765625 49.183594 132.578125 49.183594 Z M 11.289062 49.589844 L 11.289062 50.542969 L 14.675781 50.542969 L 14.675781 59.335938 L 15.703125 59.335938 L 15.703125 50.542969 L 19.09375 50.542969 L 19.09375 49.589844 Z M 97.519531 49.589844 L 93.03125 59.335938 L 94.144531 59.335938 L 97.964844 50.917969 L 101.800781 59.335938 L 102.90625 59.335938 L 98.421875 49.589844 Z M 56.925781 50.449219 L 56.925781 51.984375 L 55.632812 51.984375 L 55.632812 52.898438 L 56.925781 52.898438 L 56.925781 57.316406 C 56.925781 57.949219 57.101562 58.472656 57.472656 58.84375 C 57.835938 59.21875 58.359375 59.390625 59.007812 59.390625 C 59.292969 59.390625 59.578125 59.351562 59.851562 59.265625 C 60.132812 59.175781 60.367188 59.027344 60.558594 58.851562 L 60.660156 58.757812 L 60.203125 57.996094 L 60.050781 58.132812 C 59.785156 58.371094 59.472656 58.476562 59.074219 58.476562 C 58.671875 58.476562 58.390625 58.378906 58.21875 58.183594 C 58.035156 57.980469 57.9375 57.679688 57.9375 57.246094 L 57.9375 52.898438 L 60.171875 52.898438 L 60.171875 51.984375 L 57.9375 51.984375 L 57.9375 50.449219 Z M 48.40625 51.929688 L 48.410156 51.929688 C 47.523438 51.929688 46.824219 52.125 46.328125 52.515625 C 45.835938 52.90625 45.574219 53.421875 45.574219 54.019531 C 45.574219 54.503906 45.710938 54.914062 45.984375 55.207031 C 46.246094 55.496094 46.554688 55.707031 46.929688 55.820312 C 47.28125 55.949219 47.730469 56.054688 48.300781 56.148438 L 48.296875 56.148438 C 48.765625 56.242188 49.140625 56.324219 49.398438 56.398438 C 49.636719 56.472656 49.828125 56.59375 50.003906 56.738281 C 50.160156 56.882812 50.234375 57.054688 50.234375 57.316406 C 50.234375 57.683594 50.09375 57.941406 49.796875 58.144531 L 49.792969 58.144531 L 49.789062 58.148438 C 49.503906 58.355469 49.011719 58.464844 48.328125 58.464844 C 47.851562 58.464844 47.398438 58.386719 46.957031 58.234375 C 46.515625 58.078125 46.171875 57.882812 45.90625 57.65625 L 45.753906 57.527344 L 45.277344 58.355469 L 45.371094 58.445312 C 45.679688 58.734375 46.109375 58.960938 46.632812 59.128906 C 47.164062 59.308594 47.71875 59.390625 48.300781 59.390625 C 49.199219 59.390625 49.921875 59.214844 50.445312 58.835938 C 50.964844 58.460938 51.242188 57.941406 51.242188 57.300781 C 51.242188 56.839844 51.109375 56.445312 50.847656 56.152344 L 50.84375 56.152344 L 50.84375 56.148438 C 50.585938 55.890625 50.277344 55.683594 49.914062 55.570312 C 49.566406 55.457031 49.117188 55.347656 48.578125 55.242188 C 48.082031 55.144531 47.699219 55.050781 47.4375 54.972656 C 47.191406 54.898438 46.984375 54.78125 46.816406 54.621094 C 46.660156 54.484375 46.585938 54.296875 46.585938 54.003906 C 46.585938 53.660156 46.710938 53.402344 47.015625 53.1875 C 47.296875 52.976562 47.757812 52.855469 48.394531 52.855469 C 48.753906 52.855469 49.117188 52.90625 49.476562 53.011719 C 49.824219 53.113281 50.132812 53.265625 50.414062 53.460938 L 50.566406 53.5625 L 51.039062 52.734375 L 50.914062 52.644531 C 50.613281 52.429688 50.234375 52.261719 49.792969 52.125 L 49.785156 52.125 C 49.328125 52 48.871094 51.929688 48.40625 51.929688 Z M 141.640625 51.929688 C 140.753906 51.929688 140.058594 52.125 139.558594 52.515625 C 139.070312 52.90625 138.808594 53.421875 138.808594 54.019531 C 138.808594 54.507812 138.9375 54.917969 139.21875 55.210938 C 139.476562 55.5 139.785156 55.707031 140.164062 55.820312 C 140.511719 55.945312 140.960938 56.054688 141.53125 56.148438 L 141.527344 56.148438 C 141.996094 56.242188 142.375 56.324219 142.628906 56.398438 C 142.871094 56.472656 143.0625 56.589844 143.238281 56.738281 C 143.390625 56.882812 143.464844 57.054688 143.464844 57.316406 C 143.464844 57.683594 143.324219 57.941406 143.027344 58.144531 L 143.023438 58.148438 C 142.738281 58.355469 142.242188 58.464844 141.5625 58.464844 C 141.078125 58.464844 140.628906 58.386719 140.191406 58.234375 C 139.75 58.078125 139.402344 57.882812 139.140625 57.65625 L 138.988281 57.527344 L 138.507812 58.355469 L 138.605469 58.445312 C 138.914062 58.734375 139.335938 58.960938 139.863281 59.128906 L 139.867188 59.128906 C 140.394531 59.308594 140.953125 59.390625 141.53125 59.390625 C 142.429688 59.390625 143.152344 59.214844 143.679688 58.835938 C 144.199219 58.460938 144.476562 57.941406 144.476562 57.300781 C 144.476562 56.839844 144.34375 56.445312 144.082031 56.152344 L 144.078125 56.152344 L 144.074219 56.148438 C 143.816406 55.890625 143.511719 55.683594 143.148438 55.570312 C 142.800781 55.457031 142.351562 55.347656 141.808594 55.242188 L 141.804688 55.242188 C 141.316406 55.144531 140.925781 55.050781 140.664062 54.972656 C 140.421875 54.898438 140.214844 54.78125 140.046875 54.621094 C 139.894531 54.484375 139.816406 54.296875 139.816406 54.003906 C 139.816406 53.660156 139.945312 53.402344 140.246094 53.1875 L 140.25 53.1875 C 140.527344 52.976562 140.988281 52.855469 141.628906 52.855469 C 141.988281 52.855469 142.347656 52.90625 142.710938 53.011719 C 143.054688 53.113281 143.363281 53.265625 143.648438 53.460938 L 143.796875 53.5625 L 144.273438 52.734375 L 144.148438 52.644531 C 143.84375 52.429688 143.464844 52.261719 143.023438 52.125 L 143.015625 52.125 C 142.5625 52 142.101562 51.929688 141.640625 51.929688 Z M 152.9375 51.929688 C 152.238281 51.929688 151.617188 52.097656 151.050781 52.40625 C 150.488281 52.730469 150.046875 53.1875 149.738281 53.746094 C 149.410156 54.3125 149.257812 54.964844 149.257812 55.660156 C 149.257812 56.371094 149.410156 57.019531 149.738281 57.585938 C 150.046875 58.148438 150.488281 58.601562 151.050781 58.914062 C 151.617188 59.238281 152.242188 59.390625 152.9375 59.390625 C 153.621094 59.390625 154.246094 59.234375 154.808594 58.914062 C 155.375 58.601562 155.816406 58.148438 156.136719 57.585938 L 156.140625 57.585938 L 156.140625 57.582031 C 156.449219 57.019531 156.617188 56.375 156.617188 55.660156 C 156.617188 54.960938 156.449219 54.3125 156.140625 53.75 L 156.136719 53.746094 C 155.816406 53.1875 155.375 52.730469 154.8125 52.40625 L 154.808594 52.40625 C 154.246094 52.097656 153.625 51.929688 152.9375 51.929688 Z M 173.65625 51.929688 C 172.769531 51.929688 172.070312 52.125 171.574219 52.515625 C 171.082031 52.90625 170.824219 53.421875 170.824219 54.019531 C 170.824219 54.507812 170.957031 54.917969 171.234375 55.210938 C 171.492188 55.5 171.804688 55.707031 172.175781 55.820312 C 172.527344 55.945312 172.976562 56.054688 173.542969 56.148438 C 174.015625 56.242188 174.386719 56.324219 174.644531 56.398438 C 174.886719 56.472656 175.078125 56.589844 175.253906 56.738281 C 175.40625 56.882812 175.480469 57.054688 175.480469 57.316406 C 175.480469 57.683594 175.339844 57.941406 175.042969 58.144531 L 175.039062 58.144531 L 175.039062 58.148438 C 174.75 58.355469 174.257812 58.464844 173.578125 58.464844 C 173.097656 58.464844 172.644531 58.386719 172.203125 58.234375 C 171.761719 58.078125 171.417969 57.882812 171.15625 57.65625 L 171 57.527344 L 170.523438 58.355469 L 170.621094 58.445312 C 170.925781 58.734375 171.355469 58.960938 171.878906 59.128906 C 172.410156 59.308594 172.96875 59.390625 173.550781 59.390625 C 174.449219 59.390625 175.167969 59.214844 175.691406 58.835938 C 176.210938 58.460938 176.488281 57.941406 176.488281 57.300781 C 176.488281 56.839844 176.355469 56.445312 176.097656 56.152344 L 176.09375 56.152344 L 176.089844 56.148438 C 175.832031 55.890625 175.527344 55.683594 175.160156 55.570312 C 174.8125 55.457031 174.367188 55.347656 173.824219 55.242188 C 173.328125 55.144531 172.945312 55.050781 172.683594 54.972656 C 172.4375 54.898438 172.234375 54.78125 172.0625 54.621094 C 171.910156 54.484375 171.832031 54.296875 171.832031 54.003906 C 171.832031 53.660156 171.960938 53.402344 172.261719 53.1875 L 172.265625 53.1875 C 172.542969 52.976562 173.003906 52.855469 173.644531 52.855469 C 174.003906 52.855469 174.363281 52.90625 174.722656 53.011719 C 175.070312 53.113281 175.378906 53.265625 175.660156 53.460938 L 175.8125 53.5625 L 176.285156 52.734375 L 176.164062 52.644531 C 175.859375 52.429688 175.480469 52.261719 175.039062 52.125 L 175.035156 52.125 C 174.578125 52 174.117188 51.929688 173.65625 51.929688 Z M 27.53125 51.929688 C 26.847656 51.929688 26.265625 52.085938 25.78125 52.367188 L 25.699219 52.417969 L 25.699219 52.4375 C 25.425781 52.609375 25.210938 52.832031 25.027344 53.089844 L 25.027344 51.984375 L 24.039062 51.984375 L 24.039062 59.335938 L 25.050781 59.335938 L 25.050781 55.515625 C 25.050781 54.679688 25.257812 54.042969 25.664062 53.59375 L 25.667969 53.59375 C 26.0625 53.148438 26.628906 52.914062 27.371094 52.910156 L 27.703125 52.9375 L 27.703125 51.929688 Z M 68.707031 51.929688 C 68.019531 51.929688 67.398438 52.097656 66.859375 52.410156 C 66.308594 52.734375 65.878906 53.175781 65.570312 53.738281 C 65.257812 54.304688 65.117188 54.953125 65.117188 55.660156 C 65.117188 56.382812 65.273438 57.023438 65.597656 57.585938 C 65.925781 58.148438 66.378906 58.601562 66.953125 58.914062 C 67.535156 59.238281 68.183594 59.390625 68.921875 59.390625 C 69.480469 59.390625 70 59.292969 70.488281 59.097656 L 70.492188 59.097656 C 70.960938 58.898438 71.375 58.597656 71.703125 58.183594 L 71.789062 58.078125 L 71.175781 57.375 L 71.050781 57.53125 C 70.800781 57.847656 70.5 58.070312 70.136719 58.21875 C 69.765625 58.375 69.359375 58.449219 68.933594 58.449219 C 68.238281 58.449219 67.671875 58.273438 67.191406 57.917969 C 66.757812 57.597656 66.472656 57.167969 66.304688 56.648438 L 72.183594 55.5 L 72.171875 55.355469 C 72.132812 54.714844 71.976562 54.136719 71.664062 53.609375 C 71.355469 53.089844 70.941406 52.675781 70.433594 52.382812 C 69.921875 52.085938 69.339844 51.929688 68.707031 51.929688 Z M 165.84375 51.929688 C 165.160156 51.929688 164.574219 52.085938 164.089844 52.367188 L 164.007812 52.417969 L 164.007812 52.4375 C 163.738281 52.609375 163.519531 52.832031 163.335938 53.089844 L 163.335938 51.984375 L 162.351562 51.984375 L 162.351562 59.335938 L 163.359375 59.335938 L 163.359375 55.515625 C 163.359375 54.679688 163.566406 54.042969 163.976562 53.59375 C 164.371094 53.148438 164.9375 52.914062 165.679688 52.910156 L 166.015625 52.9375 L 166.015625 51.929688 Z M 33.265625 51.984375 L 33.265625 56.253906 C 33.265625 57.25 33.535156 58.03125 34.097656 58.578125 C 34.644531 59.125 35.421875 59.390625 36.367188 59.390625 C 37.011719 59.390625 37.582031 59.25 38.066406 58.964844 C 38.386719 58.777344 38.632812 58.515625 38.851562 58.222656 L 38.851562 59.335938 L 39.835938 59.335938 L 39.835938 51.984375 L 38.824219 51.984375 L 38.824219 55.890625 C 38.824219 56.6875 38.59375 57.316406 38.171875 57.765625 L 38.167969 57.765625 C 37.742188 58.226562 37.167969 58.449219 36.421875 58.449219 C 35.710938 58.449219 35.203125 58.265625 34.832031 57.882812 C 34.464844 57.515625 34.273438 56.960938 34.273438 56.199219 L 34.273438 51.984375 Z M 119.5 51.984375 L 122.8125 59.335938 L 123.71875 59.335938 L 127.046875 51.984375 L 125.992188 51.984375 L 123.273438 58.019531 L 120.585938 51.984375 Z M 132.074219 51.984375 L 132.074219 59.335938 L 133.078125 59.335938 L 133.078125 51.984375 Z M 68.707031 52.855469 C 69.136719 52.855469 69.539062 52.957031 69.890625 53.144531 C 70.242188 53.332031 70.515625 53.597656 70.75 53.914062 C 70.929688 54.195312 71.03125 54.519531 71.105469 54.847656 L 66.128906 55.824219 C 66.125 55.75 66.117188 55.667969 66.117188 55.605469 C 66.117188 55.078125 66.21875 54.59375 66.445312 54.179688 L 66.445312 54.175781 C 66.664062 53.761719 66.960938 53.433594 67.363281 53.210938 C 67.757812 52.984375 68.195312 52.855469 68.707031 52.855469 Z M 80.839844 52.871094 C 81.347656 52.871094 81.785156 52.996094 82.191406 53.226562 C 82.597656 53.464844 82.910156 53.789062 83.140625 54.207031 C 83.367188 54.640625 83.496094 55.121094 83.496094 55.660156 C 83.496094 56.214844 83.367188 56.695312 83.140625 57.113281 L 83.140625 57.117188 C 82.910156 57.546875 82.601562 57.871094 82.195312 58.097656 L 82.191406 58.097656 C 81.789062 58.339844 81.351562 58.449219 80.839844 58.449219 C 80.324219 58.449219 79.875 58.339844 79.472656 58.097656 L 79.46875 58.097656 C 79.0625 57.871094 78.753906 57.546875 78.523438 57.117188 L 78.523438 57.113281 C 78.296875 56.695312 78.179688 56.214844 78.179688 55.660156 C 78.179688 55.121094 78.296875 54.640625 78.523438 54.210938 L 78.523438 54.207031 C 78.75 53.789062 79.066406 53.464844 79.472656 53.226562 C 79.875 52.996094 80.328125 52.871094 80.839844 52.871094 Z M 110.804688 52.871094 C 111.3125 52.871094 111.753906 52.996094 112.160156 53.226562 C 112.566406 53.464844 112.878906 53.789062 113.101562 54.207031 C 113.332031 54.640625 113.460938 55.121094 113.460938 55.660156 C 113.460938 56.214844 113.332031 56.695312 113.105469 57.113281 L 113.101562 57.117188 C 112.875 57.546875 112.566406 57.871094 112.160156 58.097656 L 112.15625 58.097656 C 111.753906 58.339844 111.316406 58.449219 110.804688 58.449219 C 110.289062 58.449219 109.835938 58.339844 109.4375 58.097656 L 109.433594 58.097656 C 109.027344 57.871094 108.71875 57.546875 108.488281 57.117188 L 108.488281 57.113281 C 108.261719 56.695312 108.144531 56.214844 108.144531 55.660156 C 108.144531 55.121094 108.261719 54.640625 108.488281 54.207031 C 108.714844 53.789062 109.027344 53.464844 109.433594 53.226562 C 109.839844 52.996094 110.292969 52.871094 110.804688 52.871094 Z M 152.9375 52.871094 C 153.449219 52.871094 153.882812 52.996094 154.292969 53.226562 C 154.699219 53.464844 155.011719 53.789062 155.238281 54.210938 C 155.46875 54.640625 155.59375 55.121094 155.59375 55.660156 C 155.59375 56.214844 155.46875 56.695312 155.238281 57.113281 L 155.238281 57.117188 C 155.007812 57.546875 154.695312 57.871094 154.296875 58.097656 L 154.292969 58.097656 C 153.886719 58.339844 153.453125 58.449219 152.9375 58.449219 C 152.425781 58.449219 151.972656 58.339844 151.570312 58.097656 C 151.164062 57.871094 150.851562 57.546875 150.625 57.117188 L 150.621094 57.117188 L 150.621094 57.113281 C 150.394531 56.695312 150.28125 56.214844 150.28125 55.660156 C 150.28125 55.121094 150.394531 54.640625 150.625 54.207031 C 150.851562 53.789062 151.164062 53.464844 151.570312 53.226562 L 151.570312 53.222656 C 151.976562 52.996094 152.429688 52.871094 152.9375 52.871094 Z M 152.9375 52.871094 " fill-opacity="1" fill-rule="nonzero"/></svg>